<svg xmlns="http://www.w3.org/2000/svg" viewBox="0 0 660.64 638.08"><defs><linearGradient id="a" y1="319.04" x2="660.64" y2="319.04" gradientUnits="userSpaceOnUse"><stop offset="0" stop-color="#eb505c"/><stop offset="1" stop-color="#e62231"/></linearGradient></defs><g data-name="Layer 2"><path d="M.24 0c-1 0 1.5 14.9 1.69 15.68 3.52 14.48 11.89 27.41 22.21 38C59 89.3 111.85 97.46 150.59 127.71c21.55 16.83 41.19 38.24 54.85 62 22.35 38.82 16.46 85.77 13.27 128.47-4.34 58.27-4 124 23.16 177.19 73.41 143.56 256.82 143.12 396.45 142.32 6.39 0 17.31 2 20.91-2.82 3.15-4.25 0-23.17 0-28.75V0z" fill="url(#a)" data-name="Layer 1"/></g></svg>