<svg xmlns="http://www.w3.org/2000/svg" xmlns:xlink="http://www.w3.org/1999/xlink" viewBox="0 0 793.74 624.56"><defs><style>.cls-1{fill:url(#linear-gradient);}</style><linearGradient id="linear-gradient" x1="154.62" y1="518.16" x2="518.85" y2="200.51" gradientUnits="userSpaceOnUse"><stop offset="0.01" stop-color="#ff6b6b"/><stop offset="1" stop-color="#ed1c24"/></linearGradient></defs><title>banner-w</title><g id="Layer_2" data-name="Layer 2"><g id="Layer_1-2" data-name="Layer 1"><path class="cls-1" d="M1.41,1.53C.1,2.82-.08,5.09,0,8.93c.79,27.54,27.35,51.61,48.35,66C95.3,107,153.62,113.1,206.74,129.24c139,42.22,104.43,216.86,153.85,320.23,22.16,46.35,60.28,83.39,104.13,109.4,48.95,29,103.85,46.94,159.91,55.85,48.23,7.67,98.73,14.23,147.35,6.12,17.82-3,20.19-4.86,21-21.14.53-10.77.52-21.58.61-32.36.55-62.44-.46-124.9-1.3-187.33-.29-20.94-.8-41.89-.8-62.83V.14L616,.16H439.67L263.32.19Q176.64.19,90,.16,49.18.12,8.42,0S2.6.35,1.41,1.53Z"/></g></g></svg>